 http://img191.imageshack.us/img191/9095/mayorcupcake2011.jpg

Country.......: USA
Genre.........: Drama, Comedy, Family
Date release..: 19.07.2011 [World]
Director......: Alex Pires
Writers.......: Art DAlessandro, Alex Pires
Duration......: 86 min.
More..........: http://www.imdb.com/title/tt1496798
Trailer.......: http://www.imdb.com/video/screenplay/vi4008025113
Trailer.......:

Pilot :
A hard-working cupcake maker is inadvertently elected mayor of a small town burdened with debt. Uneducated, she relies on her street smarts to clean up the town. 

Cats :
Lea Thompson   	 ...  	Mary Maroni
Judd Nelson 	... 	Donald Maroni
Dorian Harewood 	... 	Albert Peach
Frankie Faison 	... 	Lenny Davis
Zoey Deutch 	... 	Lana Maroni
Madelyn Deutch 	... 	Anita Maroni
Gavin DeGraw 	... 	Himself
Greta Van Susteren 	... 	Herself
Michael Petted 	... 	Quail
Peter Patrikios 	... 	Greg Grundle
Scott Boulware 	... 	Town Clerk Pete
Peter Schmitz 	... 	Black Bart
Tom McCarthy 	... 	Mayor Bloodworth
Lexy Rutt 	... 	Tanya Maroni
Buck Schirner 	... 	Jimmy 

Data Technical :
!!! SAMPLE !!!
Audio.....: English
Subtitles.: None
Format                           : AVI
Format/Info                      : Audio Video Interleave
File size                        : 700 MiB
Duration                         : 1h 25mn
Overall bit rate                 : 1 142 Kbps
Writing application              : VirtualDubMod 1.5.10.2 (build 2540/release)
Writing library                  : VirtualDubMod build 2540/release
Video
ID                               : 0
Format                           : MPEG-4 Visual
Format profile                   : Advanced Simple@L5
Format settings, BVOP            : Yes
Format settings, QPel            : No
Format settings, GMC             : No warppoints
Format settings, Matrix          : Default (H.263)
Muxing mode                      : Packed bitstream
Codec ID                         : XVID
Codec ID/Hint                    : XviD
Duration                         : 1h 25mn
Bit rate                         : 997 Kbps
Width                            : 624 pixels
Height                           : 352 pixels
Display aspect ratio             : 16:9
Frame rate                       : 23.976 fps
Color space                      : YUV
Chroma subsampling               : 4:2:0
Bit depth                        : 8 bits
Scan type                        : Progressive
Bits/(Pixel*Frame)               : 0.189
Stream size                      : 611 MiB (87%)
Writing library                  : XviD 58
Audio
ID                               : 1
Format                           : MPEG Audio
Format version                   : Version 1
Format profile                   : Layer 3
Mode                             : Joint stereo
Mode extension                   : MS Stereo
Codec ID                         : 55
Codec ID/Hint                    : MP3
Duration                         : 1h 25mn
Bit rate mode                    : Variable
Bit rate                         : 132 Kbps
Minimum bit rate                 : 128 Kbps
Channel(s)                       : 2 channels
Sampling rate                    : 48.0 KHz
Stream size                      : 81.1 MiB (12%)
Alignment                        : Aligned on interleaves
Interleave, duration             : 24 ms (0.58 video frame)
Interleave, preload duration     : 139 ms
Writing library                  : LAME3.95 
Encoding settings                : -m j -V 4 -q 3 -lowpass 18 --vbr-old -b 128

Screen : 
http://img189.imageshack.us/img189/9596/mayorcupcake2011s1.jpg 
http://img233.imageshack.us/img233/6269/mayorcupcake2011s2.jpg 
http://img843.imageshack.us/img843/815/mayorcupcake2011s3.jpg 
http://img38.imageshack.us/img38/1669/mayorcupcake2011s4.jpg 
http://img810.imageshack.us/img810/6523/mayorcupcake2011s5.jpg